# xmcd
#
# Track frame offsets: 
#        150
#        14792
#        24510
#        41192
#        55492
#        71252
#        86540
#        101125
#        112685
#        126827
#        134925
#        153345
#
# Disc length: 2343 seconds
#
# Revision: 0
# Processed by: cddbd v1.5.2PL0 Copyright (c) Steve Scherf et al.
# Submitted via: ExactAudioCopy v0.99pb5
#
DISCID=a809250c
DTITLE=George Thomas and Friends - I'm Thankful
DYEAR=2005
DGENRE=Bluegrass
TTITLE0=Stand By Me
TTITLE1=Sitting On Top Of The World
TTITLE2=Mama Said
TTITLE3=I'm Thankful
TTITLE4=Bumpass Bounce
TTITLE5=He Still Looks Over Me
TTITLE6=Running Wild Deep River
TTITLE7=Go Ahead Go On
TTITLE8=When We're Gone
TTITLE9=County Seat
TTITLE10=Lady Down On Love
TTITLE11=Erase The Miles
EXTD=
EXTT0=
EXTT1=
EXTT2=
EXTT3=
EXTT4=
EXTT5=
EXTT6=
EXTT7=
EXTT8=
EXTT9=
EXTT10=
EXTT11=
PLAYORDER=
